<?xml version="1.0" standalone="no"?>
<!DOCTYPE svg PUBLIC "-//W3C//DTD SVG 20010904//EN"
 "http://www.w3.org/TR/2001/REC-SVG-20010904/DTD/svg10.dtd">
<svg version="1.0" xmlns="http://www.w3.org/2000/svg"
 width="500.000000pt" height="500.000000pt" viewBox="0 0 500.000000 500.000000"
 preserveAspectRatio="xMidYMid meet">
<metadata>
Design by tehwolf 2022
Vector graphic generated by potrace 1.16, written by Peter Selinger 2001-2019
</metadata>
<g transform="translate(0.000000,500.000000) scale(0.100000,-0.100000)"
fill="#8e8e8e" stroke="none">
<path d="M3105 4986 c-47 -14 -72 -48 -111 -149 -18 -48 -39 -83 -63 -105 -78
-70 -90 -85 -109 -125 -11 -23 -34 -73 -52 -110 -32 -70 -69 -111 -261 -292
-88 -83 -122 -145 -199 -369 -86 -251 -125 -309 -268 -407 -104 -71 -180 -135
-196 -168 -8 -15 -44 -44 -82 -66 -108 -63 -159 -122 -248 -290 -69 -129 -109
-180 -156 -199 -46 -18 -55 -33 -65 -106 -17 -142 -101 -404 -173 -543 -66
-131 -158 -242 -380 -464 -280 -280 -292 -300 -292 -497 0 -138 18 -269 57
-424 18 -73 27 -134 27 -192 1 -79 -2 -91 -41 -175 -74 -162 -99 -265 -71
-293 8 -8 45 -12 100 -12 136 0 161 17 280 190 37 52 101 136 143 185 42 50
90 113 106 140 72 125 55 277 -35 309 -10 3 -66 13 -124 21 -198 28 -218 59
-138 219 74 148 134 214 218 240 10 3 24 20 31 38 16 37 84 93 200 163 110 67
184 137 198 188 20 75 33 101 66 138 59 65 73 113 88 297 14 173 23 213 56
248 11 12 35 60 54 108 42 107 97 191 219 333 121 141 198 208 259 229 27 9
81 43 123 78 158 128 207 164 237 173 58 16 84 90 105 294 10 101 40 170 125
297 31 46 63 108 72 138 15 53 16 54 73 70 104 30 186 144 267 374 74 209 146
340 214 386 28 19 38 21 55 12 12 -6 82 -70 156 -142 74 -72 181 -169 237
-214 57 -46 110 -97 119 -113 19 -37 15 -56 -37 -211 -30 -87 -39 -130 -37
-165 4 -64 26 -76 128 -68 69 6 226 28 293 41 l27 6 0 -84 c0 -182 -25 -368
-75 -574 -62 -255 -80 -612 -100 -2005 l-6 -436 90 -66 c49 -36 98 -78 107
-92 24 -37 29 -116 14 -246 -16 -151 -17 -313 -2 -332 7 -8 32 -20 55 -26 27
-6 64 -29 100 -60 73 -64 137 -84 247 -79 95 4 120 21 120 81 0 31 -6 45 -30
67 -49 45 -62 99 -106 430 -28 216 -86 376 -179 495 -25 32 -50 75 -55 94 -18
71 -22 272 -11 601 26 764 60 1182 119 1450 25 117 27 141 27 375 0 414 -23
503 -160 615 -130 107 -187 185 -240 334 -22 60 -66 111 -119 138 -60 30 -75
46 -91 101 -8 28 -22 61 -30 73 -34 52 -162 105 -310 129 -113 19 -500 19
-560 1z"/>
</g>
</svg>
