<svg xmlns="http://www.w3.org/2000/svg" preserveAspectRatio="xMidYMid meet" version="1.0" viewBox="0 0 1000 1000">
    <g id="layer101" fill="#8e8e8e" stroke="none">
        <path d="M85 978 c3 -13 11 -33 18 -46 8 -17 8 -34 -1 -68 -7 -24 -12 -62 -12 -84 0 -37 6 -47 65 -103 50 -49 69 -75 85 -120 11 -31 20 -66 20 -77 0 -11 6 -20 13 -20 7 0 21 -19 32 -42 11 -24 30 -47 43 -53 12 -5 22 -13 22 -17 0 -4 17 -18 38 -32 30 -19 40 -34 56 -85 14 -45 27 -66 51 -83 18 -12 38 -36 44 -55 7 -18 17 -33 22 -33 6 0 15 -13 20 -30 11 -29 12 -30 80 -30 71 0 119 18 119 45 0 8 9 16 19 20 11 3 22 19 26 35 3 16 21 40 39 54 30 23 34 31 38 91 4 40 1 86 -7 116 -7 27 -17 130 -20 227 -6 146 -5 181 6 192 24 25 39 68 44 128 3 31 10 59 15 60 6 2 10 10 10 18 0 19 -54 18 -70 -1 -7 -8 -19 -15 -26 -15 -11 0 -12 -13 -8 -59 6 -53 5 -59 -17 -75 l-24 -17 3 -220 c2 -153 8 -235 18 -267 7 -26 14 -66 14 -90 l0 -43 -45 7 c-50 7 -53 3 -33 -52 11 -31 10 -35 -18 -56 -16 -12 -42 -36 -57 -52 -27 -28 -28 -28 -45 -10 -10 10 -24 39 -32 64 -16 50 -38 80 -57 80 -7 0 -13 6 -13 13 0 6 -9 23 -20 37 -11 14 -20 37 -20 52 0 32 -9 58 -21 58 -4 0 -20 11 -35 25 -15 14 -31 25 -37 25 -16 0 -87 82 -93 107 -4 13 -10 26 -15 29 -5 3 -9 25 -9 48 0 27 -6 48 -15 56 -8 7 -15 20 -15 29 0 9 -18 26 -40 39 -22 12 -40 27 -40 32 0 6 -6 10 -12 10 -14 0 -48 54 -48 75 0 9 14 15 38 17 32 3 37 7 40 29 2 18 -6 36 -23 55 -15 16 -34 41 -43 56 -12 20 -24 28 -45 28 -25 0 -28 -3 -22 -22z"/>
    </g>
</svg>
